<svg width="35" height="35" viewBox="0 0 35 35" fill="none" xmlns="http://www.w3.org/2000/svg">
<path d="M9.84375 18.3204H4.375C4.15744 18.3204 3.94879 18.2339 3.79495 18.0801C3.64112 17.9263 3.55469 17.7176 3.55469 17.5001C3.55469 17.2825 3.64112 17.0738 3.79495 16.92C3.94879 16.7662 4.15744 16.6797 4.375 16.6797H9.40625L11.3477 13.7676C11.4225 13.6548 11.5241 13.5623 11.6433 13.4983C11.7626 13.4343 11.8959 13.4008 12.0313 13.4008C12.1666 13.4008 12.2999 13.4343 12.4192 13.4983C12.5384 13.5623 12.64 13.6548 12.7148 13.7676L16.4063 19.3047L17.9102 17.0489C17.9847 16.9357 18.0862 16.8427 18.2055 16.7783C18.3248 16.7138 18.4582 16.68 18.5938 16.6797H21.875C22.0926 16.6797 22.3012 16.7662 22.4551 16.92C22.6089 17.0738 22.6953 17.2825 22.6953 17.5001C22.6953 17.7176 22.6089 17.9263 22.4551 18.0801C22.3012 18.2339 22.0926 18.3204 21.875 18.3204H19.0313L17.0898 21.2325C17.015 21.3453 16.9134 21.4378 16.7942 21.5018C16.6749 21.5658 16.5416 21.5993 16.4063 21.5993C16.2709 21.5993 16.1376 21.5658 16.0183 21.5018C15.8991 21.4378 15.7975 21.3453 15.7227 21.2325L12.0313 15.6954L10.5273 17.9512C10.4528 18.0645 10.3513 18.1574 10.232 18.2219C10.1127 18.2863 9.97933 18.3201 9.84375 18.3204ZM24.0625 4.64849C22.7683 4.64785 21.4936 4.96399 20.3497 5.56931C19.2058 6.17463 18.2274 7.05073 17.5 8.12115C16.5474 6.71675 15.1694 5.65499 13.5686 5.09193C11.9677 4.52886 10.2285 4.49421 8.6065 4.99305C6.98449 5.49189 5.5653 6.49792 4.55753 7.86325C3.54976 9.22859 3.00657 10.8812 3.00781 12.5782C3.00781 12.7696 3.00781 12.9747 3.02149 13.1661C3.03558 13.3849 3.13531 13.5894 3.29907 13.7353C3.46284 13.8811 3.67747 13.9566 3.89649 13.9454C4.00368 13.9402 4.10877 13.9136 4.20558 13.8673C4.30239 13.821 4.38898 13.7558 4.46028 13.6756C4.53158 13.5954 4.58616 13.5017 4.62082 13.4002C4.65548 13.2986 4.66951 13.1911 4.66211 13.084C4.64844 12.9063 4.64844 12.7422 4.64844 12.5782C4.64526 11.1219 5.14753 9.70974 6.06954 8.58256C6.99154 7.45538 8.27614 6.68309 9.7041 6.3975C11.1321 6.11191 12.6149 6.33071 13.8995 7.01657C15.1841 7.70242 16.1909 8.81282 16.748 10.1583C16.8069 10.3098 16.9102 10.4401 17.0444 10.532C17.1786 10.6238 17.3374 10.6729 17.5 10.6729C17.6626 10.6729 17.8214 10.6238 17.9556 10.532C18.0898 10.4401 18.1931 10.3098 18.252 10.1583C18.8091 8.81282 19.8159 7.70242 21.1005 7.01657C22.3851 6.33071 23.8679 6.11191 25.2959 6.3975C26.7239 6.68309 28.0085 7.45538 28.9305 8.58256C29.8525 9.70974 30.3547 11.1219 30.3516 12.5782C30.3516 20.4122 19.7148 27.2481 17.5 28.5743C16.1875 27.7813 11.8945 25.0606 8.64063 21.3419C8.56997 21.2598 8.48376 21.1925 8.38696 21.1439C8.29017 21.0953 8.1847 21.0663 8.07666 21.0587C7.96862 21.0511 7.86014 21.0649 7.75748 21.0994C7.65482 21.134 7.56001 21.1885 7.47852 21.2598C7.31589 21.4045 7.21628 21.607 7.20095 21.8242C7.18562 22.0413 7.2558 22.2558 7.39649 22.4219C11.4707 27.0704 16.8711 30.1192 17.1035 30.2422C17.2236 30.3132 17.3605 30.3506 17.5 30.3506C17.6395 30.3506 17.7764 30.3132 17.8965 30.2422C20.3895 28.7848 22.73 27.081 24.8828 25.1563C29.5996 20.9044 31.9922 16.6797 31.9922 12.5782C31.9922 10.4751 31.1567 8.45815 29.6696 6.97105C28.1825 5.48394 26.1656 4.64849 24.0625 4.64849Z" fill="#D9D9D9"/>
</svg>
